<?xml version="1.0" encoding="UTF-8"?>
<svg id="Layer_1" xmlns="http://www.w3.org/2000/svg" version="1.1" viewBox="0 0 420 150">
  <!-- Generator: Adobe Illustrator 29.2.1, SVG Export Plug-In . SVG Version: 2.1.0 Build 116)  -->
  <defs>
    <style>
      .st0 {
        fill: #e55f25;
      }

      .st1 {
        fill: #2e2e3a;
      }
    </style>
  </defs>
  <g>
    <g>
      <path class="st1" d="M180,92.4c-10.6,0-20.1-2.8-29-7.9l3.5-6.5c8.2,4.3,17.1,7.1,25,7.1s24-3.2,24-12.7-9.6-9.4-18.2-10.6c-2.6-.3-5-.6-7.2-.9-13.1-1.8-27-5.7-27-17.9s18.1-19,30.7-19,19.8,2.6,28.2,8.7l-4,5.8c-7.1-5-15.3-7.3-24.3-7.3-13.2,0-21.9,4.6-21.9,11.5s9.3,8.1,15.6,9.5c6.7,1.4,14.6,2.2,19.9,3.6,8.6,2.2,17,6.4,17,16.7,0,16.1-20.8,20-32.4,20h0Z"/>
      <path class="st1" d="M227.1,25.3h8.9v66.4h-8.9V25.3Z"/>
      <path class="st1" d="M302.8,75.9h-37.2l-7.4,15.8h-9.2l31.9-66.6h7.3l31.3,66.6h-9.4l-7.3-15.8h0ZM284.2,36.2l-15.3,32.6h30.5l-15.2-32.7h0Z"/>
      <path class="st1" d="M401.6,41.3l-.2-.4-28.2,50.4h-4l-25.6-50.8-.5.4-9.1,50.8h-8.2l10.9-66.5h8.2l26.7,52.5h0c0,0,30-52.5,30-52.5h7.1l10.1,66.5h-8.7l-8.7-50.4h0Z"/>
    </g>
    <g>
      <path class="st1" d="M159.8,126c-1.7,0-3.2-.4-4.5-1.1s-2.3-1.7-3-3-1.1-2.8-1.1-4.6.2-2.4.6-3.5c.4-1.1,1-2,1.8-2.7s1.7-1.4,2.7-1.8,2.2-.6,3.4-.6,2.2.1,3.1.4c.9.3,1.7.7,2.3,1.3l-1,1.5c-.6-.5-1.2-.9-1.9-1.1s-1.5-.3-2.4-.3-2,.2-2.8.5-1.6.8-2.2,1.4c-.6.6-1.1,1.3-1.4,2.2-.3.9-.5,1.8-.5,2.9s.3,2.7.9,3.8,1.4,1.8,2.4,2.4,2.3.8,3.7.8,1.7-.1,2.6-.4c.8-.3,1.6-.7,2.3-1.3l.9,1.5c-.8.6-1.7,1.1-2.7,1.4s-2.1.5-3.3.5h0Z"/>
      <path class="st1" d="M176.7,126c-1.2,0-2.4-.2-3.4-.7-1.1-.4-2-1.1-2.8-1.8s-1.4-1.7-1.8-2.8-.7-2.2-.7-3.4.2-2.4.7-3.4c.4-1.1,1-2,1.8-2.8.8-.8,1.7-1.4,2.8-1.8,1.1-.4,2.2-.7,3.4-.7s2.4.2,3.4.7c1.1.4,2,1.1,2.8,1.9s1.4,1.7,1.8,2.8c.4,1.1.7,2.2.7,3.4s-.2,2.4-.7,3.4c-.4,1.1-1.1,2-1.8,2.8s-1.7,1.4-2.8,1.8c-1.1.4-2.2.7-3.4.7h0ZM176.7,124.3c.9,0,1.8-.2,2.7-.5s1.5-.8,2.2-1.4,1.1-1.3,1.5-2.2.5-1.8.5-2.9-.3-2.6-.9-3.7c-.6-1-1.4-1.9-2.5-2.4s-2.2-.9-3.4-.9-1.8.2-2.7.5-1.5.8-2.2,1.4-1.1,1.3-1.5,2.2-.5,1.8-.5,2.9.3,2.6.9,3.7c.6,1,1.4,1.9,2.5,2.4s2.2.9,3.4.9h0Z"/>
      <path class="st1" d="M189.4,125.6v-16.7h1.8l7.1,11.4h-.7s6.9-11.4,6.9-11.4h1.7v16.7h-1.8v-14.1s.4.1.4.1l-6.2,10.1h-1.5l-6.3-10.1h.3c0-.1,0,14,0,14h-1.7,0Z"/>
      <path class="st1" d="M211.3,125.6v-16.7h1.8l7.1,11.4h-.7s6.9-11.4,6.9-11.4h1.7v16.7h-1.8v-14.1s.4.1.4.1l-6.2,10.1h-1.5l-6.3-10.1h.3c0-.1,0,14,0,14h-1.7,0Z"/>
      <path class="st1" d="M233.1,125.6v-16.7h10.1v1.6h-8.3v5.4h7.3v1.6h-7.3v6.3h8.4v1.7h-10.2,0Z"/>
      <path class="st1" d="M247.8,125.6v-16.7h6c1.1,0,2,.2,2.8.6.8.4,1.4,1,1.8,1.7s.6,1.6.6,2.6-.2,1.6-.6,2.2c-.4.6-.9,1.2-1.6,1.6-.7.4-1.5.7-2.5.8l5.4,7.3h-2.3l-5.2-7.1h-2.8v7.1h-1.8ZM249.6,116.9h3.8c1.2,0,2.2-.3,2.9-.8s1-1.3,1-2.3-.3-1.8-.9-2.4-1.5-.9-2.8-.9h-4v6.3h0Z"/>
      <path class="st1" d="M271,126c-1.7,0-3.2-.4-4.5-1.1s-2.3-1.7-3-3-1.1-2.8-1.1-4.6.2-2.4.6-3.5c.4-1.1,1-2,1.8-2.7s1.7-1.4,2.7-1.8,2.2-.6,3.4-.6,2.2.1,3.1.4c.9.3,1.7.7,2.3,1.3l-1,1.5c-.6-.5-1.2-.9-1.9-1.1s-1.5-.3-2.4-.3-2,.2-2.8.5-1.6.8-2.2,1.4c-.6.6-1.1,1.3-1.4,2.2-.3.9-.5,1.8-.5,2.9s.3,2.7.9,3.8,1.4,1.8,2.4,2.4c1,.5,2.3.8,3.7.8s1.7-.1,2.6-.4c.8-.3,1.6-.7,2.3-1.3l.9,1.5c-.8.6-1.7,1.1-2.7,1.4-1,.3-2.1.5-3.3.5h0Z"/>
      <path class="st1" d="M280.5,125.6v-16.7h1.8v16.7h-1.8Z"/>
      <path class="st1" d="M285.5,125.6l6.6-16.7h1.8l6.9,16.7h-2l-1.8-4.4h-7.8l-1.7,4.4h-2,0ZM289.7,119.6h6.6l-3.4-8.2-3.2,8.2Z"/>
      <path class="st1" d="M303.9,125.6v-16.7h1.8v15h7.6v1.7h-9.5Z"/>
      <path class="st1" d="M328.7,126c-1.1,0-2.1-.1-3.2-.4s-1.9-.7-2.6-1.3l.9-1.4c.4.3.9.6,1.4.8s1.1.4,1.7.5c.6.1,1.2.2,1.8.2,1.3,0,2.3-.3,3.1-.8.8-.5,1.2-1.2,1.2-2.2s-.3-1.3-.8-1.8c-.5-.5-1.5-.9-2.8-1.3l-1.9-.6c-1.5-.4-2.6-1-3.3-1.7s-1-1.6-1-2.7.1-1.4.4-2c.3-.6.7-1.1,1.2-1.5s1.1-.7,1.9-.9c.7-.2,1.5-.3,2.4-.3s2,.2,2.9.5c.9.3,1.6.7,2.2,1.2l-1,1.4c-.4-.3-.8-.5-1.2-.8s-1-.4-1.5-.5-1.1-.2-1.6-.2c-.8,0-1.5.1-2,.3s-1.1.6-1.4,1c-.3.4-.5,1-.5,1.6s.1.9.3,1.2.6.7,1.1.9,1.2.6,2.2.8l2,.6c1.4.4,2.5,1,3.2,1.7.7.7,1,1.6,1,2.8s-.2,1.8-.7,2.5-1.1,1.3-2,1.7-2,.6-3.2.6h0Z"/>
      <path class="st1" d="M338.8,125.6v-16.7h10.1v1.6h-8.3v5.4h7.3v1.6h-7.3v6.3h8.4v1.7h-10.2,0Z"/>
      <path class="st1" d="M353.4,125.6v-16.7h6c1.1,0,2,.2,2.8.6.8.4,1.4,1,1.8,1.7s.6,1.6.6,2.6-.2,1.6-.6,2.2c-.4.6-.9,1.2-1.6,1.6-.7.4-1.5.7-2.5.8l5.4,7.3h-2.3l-5.2-7.1h-2.8v7.1h-1.8ZM355.2,116.9h3.8c1.2,0,2.2-.3,2.9-.8s1-1.3,1-2.3-.3-1.8-.9-2.4-1.5-.9-2.8-.9h-4v6.3h0Z"/>
      <path class="st1" d="M373.5,125.6l-6.6-16.7h2l5.5,14.1,5.2-14.1h2l-6.3,16.7h-1.7Z"/>
      <path class="st1" d="M384.7,125.6v-16.7h1.8v16.7h-1.8Z"/>
      <path class="st1" d="M399,126c-1.7,0-3.2-.4-4.5-1.1s-2.3-1.7-3-3-1.1-2.8-1.1-4.6.2-2.4.6-3.5c.4-1.1,1-2,1.8-2.7s1.7-1.4,2.7-1.8,2.2-.6,3.4-.6,2.2.1,3.1.4c.9.3,1.7.7,2.3,1.3l-1,1.5c-.6-.5-1.2-.9-1.9-1.1s-1.5-.3-2.4-.3-2,.2-2.8.5-1.6.8-2.2,1.4c-.6.6-1.1,1.3-1.4,2.2-.3.9-.5,1.8-.5,2.9s.3,2.7.9,3.8,1.4,1.8,2.4,2.4c1,.5,2.3.8,3.7.8s1.7-.1,2.6-.4c.8-.3,1.6-.7,2.3-1.3l.9,1.5c-.8.6-1.7,1.1-2.7,1.4-1,.3-2.1.5-3.3.5h0Z"/>
      <path class="st1" d="M408.6,125.6v-16.7h10.1v1.6h-8.3v5.4h7.3v1.6h-7.3v6.3h8.4v1.7h-10.2,0Z"/>
    </g>
  </g>
  <circle class="st0" cx="74.8" cy="75" r="2"/>
  <g>
    <path class="st0" d="M67.5,141.5C30.9,141.5,1,111.7,1,75S30.9,8.5,67.5,8.5s66.5,29.9,66.5,66.5-29.9,66.5-66.5,66.5h0ZM67.5,13.4c-34,0-61.6,27.6-61.6,61.6s27.6,61.6,61.6,61.6,61.6-27.6,61.6-61.6S101.5,13.4,67.5,13.4Z"/>
    <path class="st0" d="M97.1,49.9c-3.6-16.2-18-24-33.1-15.7-1.3.7-8.4,5.8-8,6.2,7,7.4,0,0,7.2,7.6,3.7-3.5,10.4-8.2,15.2-3.9,3.2,2.8,1.9,6.2-.2,9.2-4.1,5.6-11.4,8.1-16,13.1-.9,1-2.4,2.7-3.2,3.5-.9.8-2.9,2-4.1,2.7-13.9,9-18.8,23.8-18,39.9,0,.8.4,6.6.7,6.6,3.8,0,4.5,0,9.8,0,1.3-5.4,3-13.8,8-17.1,2.7-1.8,6.8-2,8.8.9,2.5,3.7.9,10.9.9,15.2,0,.3,0,0,0,.9h9.3c.3,0,5.3-7.4,5.9-8.4,11.3-17.5,21.7-39.3,16.9-60.7h0ZM82.3,101.7c-1,1.7-8.7,14.4-9.5,14.4h-4.5c.4-5.6,1.2-15.4-5.5-17.7-8.6-2.9-14,5.3-16.3,12.3-.2.7-1.3,5.5-1.6,5.5-.7,0-4.5.1-4.7,0-.5-.3-.5-10.6-.4-12,.6-10.5,7.3-24.8,17.2-29.5,1.2-.6.6.3.5,1.2-.4,10.8,9.6,17,19.3,12,1.7-.9,6.4-4.6,7.8-6.8,1-1.4-.8-2.9-2-1.7,0,0-3.1,3.1-3.9,3.8-6.2,5.2-14.5,5.4-17.9-2.9-4-10,10.1-16.2,15.8-21.2,4.9-4.3,10.1-11.6,3.5-17.1-3.6-3.1-7.8-2.8-12-.9-.9.4-4.5,2.9-4.8,2.9s-3.6-3.3-3.4-3.5c1.2-1,1.5-1.2,2-1.5,13.5-10.2,28.3-4.9,32.1,11.4,4.3,18.1-2.9,36.1-11.8,51.4h0Z"/>
  </g>
</svg>